<svg width="14" height="14" viewBox="0 0 14 14" fill="none" xmlns="http://www.w3.org/2000/svg">
<path d="M10.7065 13.5C10.5999 13.5004 10.4947 13.4753 10.3998 13.4266L6.99984 11.6466L3.59984 13.4266C3.48944 13.4847 3.36496 13.5106 3.24056 13.5014C3.11616 13.4923 2.99683 13.4484 2.89613 13.3748C2.79543 13.3012 2.7174 13.2008 2.67092 13.085C2.62443 12.9693 2.61136 12.8428 2.63318 12.72L3.29984 8.96664L0.553175 6.29997C0.46748 6.21446 0.406689 6.10722 0.377327 5.98977C0.347964 5.87232 0.351138 5.74909 0.386508 5.63331C0.425148 5.51482 0.496226 5.40954 0.591675 5.32941C0.687125 5.24928 0.803123 5.19751 0.926509 5.17997L4.72651 4.62664L6.39984 1.20664C6.45443 1.09393 6.53967 0.998868 6.64578 0.932356C6.7519 0.865843 6.8746 0.830566 6.99984 0.830566C7.12508 0.830566 7.24779 0.865843 7.3539 0.932356C7.46002 0.998868 7.54525 1.09393 7.59984 1.20664L9.29318 4.61997L13.0932 5.17331C13.2166 5.19084 13.3326 5.24262 13.428 5.32275C13.5235 5.40288 13.5945 5.50816 13.6332 5.62664C13.6685 5.74242 13.6717 5.86565 13.6424 5.9831C13.613 6.10055 13.5522 6.20779 13.4665 6.29331L10.7198 8.95997L11.3865 12.7133C11.4103 12.8383 11.3978 12.9675 11.3506 13.0856C11.3033 13.2037 11.2233 13.3059 11.1198 13.38C10.9991 13.4646 10.8538 13.5068 10.7065 13.5V13.5Z" fill="#E6AC39"/>
</svg>
